<svg
  id="Layer_1"
  data-name="Layer 1"
  xmlns="http://www.w3.org/2000/svg"
  viewBox="0 0 100 100"
  width="50px"
>
<defs><style>.cls-1{fill:#ffffff;}.cls-2{fill:#ff0046;}</style></defs>
<title>Untitled-2</title>
<path
    class="cls-1"
    d="M100.23,47.1v6.25a8.52,8.52,0,0,0-.17.85A47.45,47.45,0,0,1,94.75,73c-7.43,14-19,22.78-34.45,26.26-.69.16-1.39.24-2.08.36,0-.2-.09-1.57-.12-3.66C58,87.07,58,65.38,58.25,64.7c3.79-.07,7.61,0,11.48-.06.75-4.84,1.46-9.55,2.21-14.41H65c-2.26,0-4.53,0-6.92,0V48.92c0-2.48,0-5,0-7.42a15.19,15.19,0,0,1,.22-2.62,6.36,6.36,0,0,1,4.87-5.4,16.54,16.54,0,0,1,3.37-.43c1.63-.07,3.26,0,4.88,0,.35,0,.69-.05,1-.08,0-.37.06-.63.06-.89q0-5.18,0-10.35c0-1,0-1.05-1.1-1.17-2-.22-4-.46-6-.63a30.92,30.92,0,0,0-8.75.25C50.82,21.32,46.5,24.42,44.11,30A20.75,20.75,0,0,0,42.44,38c0,3.65,0,7.29,0,10.94,0,.38,0,.76-.07,1.27h-6.3c-2.07,0-4.14,0-6.17,0A130.28,130.28,0,0,0,30,64.68h1.12c3.38,0,6.77,0,10.15,0,.38,0,.75,0,1.09.08.2,1.47.17,24.19,0,32.1,0,1.57-.07,2.56-.11,2.68-.34,0-.69-.07-1-.14A48.83,48.83,0,0,1,17,87.51,49.2,49.2,0,0,1,.38,53.87,46.27,46.27,0,0,1,1.53,38.94C5.48,23,14.93,11.53,29.78,4.63A48,48,0,0,1,59.54,1.1a48.77,48.77,0,0,1,27,14.81,49.08,49.08,0,0,1,13.32,28.4C100,45.24,100.12,46.17,100.23,47.1Z"
  />
  <path
    class="cls-2"
    d="M72.49,21.71q0,5.17,0,10.35c0,.26,0,.52-.06.89-.35,0-.69.08-1,.08-1.62,0-3.25-.05-4.88,0a16.54,16.54,0,0,0-3.37.43,6.36,6.36,0,0,0-4.87,5.4,15.19,15.19,0,0,0-.22,2.62c0,2.47,0,4.94,0,7.42v1.29c2.39,0,4.66,0,6.92,0h7c-.75,4.86-1.46,9.57-2.21,14.41-3.87.1-7.69,0-11.48.06-.21.68-.27,22.37-.15,31.21,0,2.09.07,3.46.12,3.66l-16,0c0-.12.08-1.11.11-2.68.16-7.91.19-30.63,0-32.1-.34,0-.71-.08-1.09-.08-3.38,0-6.77,0-10.15,0H30a130.28,130.28,0,0,1-.08-14.43c2,0,4.1,0,6.17,0h6.3c0-.51.07-.89.07-1.27,0-3.65,0-7.29,0-10.94A20.75,20.75,0,0,1,44.11,30c2.39-5.53,6.71-8.63,12.52-9.79a30.92,30.92,0,0,1,8.75-.25c2,.17,4,.41,6,.63C72.45,20.66,72.49,20.7,72.49,21.71Z"
  />
  </svg>
