<svg
  id="Layer_1"
  data-name="Layer 1"
  xmlns="http://www.w3.org/2000/svg"
  viewBox="0 0 100 100.22"
  width="50px"
>
<defs><style>.cls-1{fill:#ffffff;}.cls-2{fill:#ff0046;}</style></defs>
<title>Untitled-2</title>
<path
    class="cls-1"
    d="M50.12.85A49.57,49.57,0,1,1,.57,50.44,49.59,49.59,0,0,1,50.12.85Zm0,22.09c-3.27,0-6.53,0-9.8,0a22.6,22.6,0,0,0-2.85.18,16.44,16.44,0,0,0-11.71,7,16.68,16.68,0,0,0-3.13,9.91q0,9.8,0,19.6a27.21,27.21,0,0,0,.2,3.61,16.24,16.24,0,0,0,5.86,10.64,17.11,17.11,0,0,0,11.47,4c6.72,0,13.44,0,20.15,0a19.86,19.86,0,0,0,3.18-.25A16.87,16.87,0,0,0,77.59,61.3c.15-7.26.1-14.53,0-21.8a16.23,16.23,0,0,0-4.7-11.31,16.8,16.8,0,0,0-12.42-5.25C57,22.92,53.57,22.94,50.12,22.94Z"
  /><path
    class="cls-2"
    d="M50.12,22.94c3.45,0,6.9,0,10.35,0a16.8,16.8,0,0,1,12.42,5.25,16.23,16.23,0,0,1,4.7,11.31c.1,7.27.15,14.54,0,21.8A16.87,16.87,0,0,1,63.48,77.68a19.86,19.86,0,0,1-3.18.25c-6.71,0-13.43,0-20.15,0a17.11,17.11,0,0,1-11.47-4,16.24,16.24,0,0,1-5.86-10.64,27.21,27.21,0,0,1-.2-3.61q0-9.81,0-19.6a16.68,16.68,0,0,1,3.13-9.91,16.44,16.44,0,0,1,11.71-7A22.6,22.6,0,0,1,40.32,23C43.59,22.92,46.85,22.94,50.12,22.94Zm0,48.9h0c3.38,0,6.76,0,10.13,0a12.85,12.85,0,0,0,2.41-.17A10.91,10.91,0,0,0,71.54,61c-.05-7,0-14,0-21a11.57,11.57,0,0,0-.15-1.86A10.92,10.92,0,0,0,60.6,29c-7,.05-14,0-21,0a11.45,11.45,0,0,0-1.75.13,11,11,0,0,0-9.13,10.92c.1,6.94,0,13.88,0,20.81a11.48,11.48,0,0,0,.11,1.76,10.91,10.91,0,0,0,10.87,9.19C43.19,71.78,46.68,71.84,50.16,71.84Z"
  />
  <path
    class="cls-1"
    d="M50.16,71.84c-3.48,0-7-.06-10.45,0a10.91,10.91,0,0,1-10.87-9.19,11.48,11.48,0,0,1-.11-1.76c0-6.93.06-13.87,0-20.81a11,11,0,0,1,9.13-10.92A11.45,11.45,0,0,1,39.57,29c7,0,14,0,21,0a10.92,10.92,0,0,1,10.77,9,11.57,11.57,0,0,1,.15,1.86c0,7,0,14,0,21A10.91,10.91,0,0,1,62.7,71.67a12.85,12.85,0,0,1-2.41.17c-3.37,0-6.75,0-10.13,0ZM36.06,50.41a14,14,0,1,0,28.09,0,14,14,0,0,0-28.09,0ZM64.87,33.27a2.29,2.29,0,0,0-2.3,2.3,2.33,2.33,0,1,0,2.3-2.3Z"
  />
  <path
    class="cls-2"
    d="M36.06,50.41a14,14,0,1,1,14,14.07A14.07,14.07,0,0,1,36.06,50.41Zm14,8.63a8.6,8.6,0,1,0-8.58-8.67A8.68,8.68,0,0,0,50.11,59Z"
  />
  <path
    class="cls-2"
    d="M64.87,33.27a2.3,2.3,0,1,1-2.3,2.3A2.29,2.29,0,0,1,64.87,33.27Z"
  />
  <path
    class="cls-1"
    d="M50.11,59a8.6,8.6,0,1,1,8.61-8.53A8.69,8.69,0,0,1,50.11,59Z"
  />
  </svg>
