<svg
  id="Layer_1"
  data-name="Layer 1"
  xmlns="http://www.w3.org/2000/svg"
  viewBox="0 0 140 140"
  width="50px"
>
<defs><style>.cls-1{fill:#ffffff;}.cls-2{fill:#ff0046;}</style></defs>
<title>Untitled-2</title>
<circle class="cls-1" cx="70" cy="70" r="70" />
<path
    class="cls-2"
    d="M71.4,11a2.67,2.67,0,0,0,.79.09,32.84,32.84,0,0,1,14.19,4.28A33.74,33.74,0,0,1,101.55,33a32.72,32.72,0,0,1,2.11,13.39,35.7,35.7,0,0,1-2.34,10.83,41.74,41.74,0,0,1-3.44,6.68L83.61,88.18c-3.2,5.45-6.4,10.92-9.63,16.36a8.2,8.2,0,0,1-2.59,2.75,2.91,2.91,0,0,1-3.74-.26,9,9,0,0,1-2.3-2.62l-17-29.33c-2.07-3.58-4.13-7.18-6.23-10.75-.58-1-1.27-1.91-1.83-2.91a33.2,33.2,0,0,1-4.08-11.86,32.75,32.75,0,0,1-.09-8.9,33.3,33.3,0,0,1,5.09-14A33.91,33.91,0,0,1,67.9,11c.06,0,.14,0,.17,0ZM87.81,44.85a18,18,0,1,0-18,17.9A17.91,17.91,0,0,0,87.81,44.85Z"
  />
  <path
    class="cls-2"
    d="M66.45,124.94c0-.08-.11,0-.17,0-3.4-.1-6.79-.35-10.17-.77a81.52,81.52,0,0,1-12.18-2.42A48.89,48.89,0,0,1,34.4,118a26.07,26.07,0,0,1-6.35-4.46,12.61,12.61,0,0,1-3.54-5.73,8.72,8.72,0,0,1,1.91-8.18,17.71,17.71,0,0,1,5.12-4.06A42.88,42.88,0,0,1,41,91.83a84.72,84.72,0,0,1,10.23-2.1.44.44,0,0,1,.54.25c.63,1.12,1.28,2.22,1.92,3.33a1.22,1.22,0,0,1,.09.17l-2,.3a55.18,55.18,0,0,0-12.38,3.29,16.37,16.37,0,0,0-3.93,2.22,6.79,6.79,0,0,0-1.56,1.65,3.32,3.32,0,0,0,.11,3.9,9.34,9.34,0,0,0,2.9,2.48A29.17,29.17,0,0,0,43.53,110,73.62,73.62,0,0,0,55,112.33a121.34,121.34,0,0,0,19.71.8,104.21,104.21,0,0,0,11.3-1,66.73,66.73,0,0,0,10.91-2.37,26.46,26.46,0,0,0,6.12-2.68,8.69,8.69,0,0,0,2.45-2.15,3.36,3.36,0,0,0,0-4.22,8.3,8.3,0,0,0-2.26-2,24.66,24.66,0,0,0-5.57-2.56A58.48,58.48,0,0,0,89.15,94c-1.05-.19-2.11-.34-3.16-.5-.16,0-.19-.05-.1-.2l2-3.48c.09-.14.19-.13.32-.12,1.93.28,3.84.62,5.75,1a61.45,61.45,0,0,1,8.64,2.4A31.36,31.36,0,0,1,110,96.8a14.4,14.4,0,0,1,3.91,3.87,8.54,8.54,0,0,1,1.44,4.35c0,.06,0,.13.06.17v.67c-.1,0,0,.15-.06.22a9.82,9.82,0,0,1-.46,2.28,13.34,13.34,0,0,1-3.64,5.41,27.76,27.76,0,0,1-6.9,4.64,51,51,0,0,1-8.55,3.24,80,80,0,0,1-12.25,2.46,105.7,105.7,0,0,1-10.67.79s-.11,0-.15,0Z"
  />
  </svg>
