<svg
  id="Layer_1"
  data-name="Layer 1"
  xmlns="http://www.w3.org/2000/svg"
  viewBox="0 0 139.68 140.18"
  width="50px"
>
<defs><style>.cls-1{fill:#ffffff;}.cls-2{fill:#ff0046;}</style></defs>
<title>Untitled-2</title>
<path
    class="cls-1"
    d="M65.22,0h9.34c2,.22,4.06.21,6.09.38A46.31,46.31,0,0,1,90.87,2.63a69.31,69.31,0,0,1,25.3,14.25,70.08,70.08,0,0,1,18.08,24.88,61.89,61.89,0,0,1,5.05,18.36A118.31,118.31,0,0,1,139.59,75a55.09,55.09,0,0,1-1.7,12.6A70.21,70.21,0,0,1,103,132.26a64,64,0,0,1-22,7.36,93.18,93.18,0,0,1-16.11.4,58.47,58.47,0,0,1-7.71-.6,68.78,68.78,0,0,1-15.46-4.73,70.3,70.3,0,0,1-40-48A58.17,58.17,0,0,1,0,72.75c0-3.67-.11-7.35.25-11a65.2,65.2,0,0,1,5-19.23A70,70,0,0,1,15.08,25.8,71.07,71.07,0,0,1,28.79,12.73a70.12,70.12,0,0,1,26-11.67A54.55,54.55,0,0,1,64.21.11C64.55.1,64.91.22,65.22,0Z"
  />
  <path
    class="cls-2"
    d="M48.89,25.54c.76,2.85,1.55,5.64,2.27,8.45,1.4,5.44,2.77,10.89,4.15,16.35.33,1.33.31,1.34-1,1-.68-.17-1.36-.32-2-.54a2.25,2.25,0,0,0-2.74.57c-.81.91-.37,1.74,0,2.58a105.61,105.61,0,0,0,6.55,11.65C61.24,73.86,66.46,82,71.39,90.39c1.16,2,2.49,3.85,3.76,5.75a4.52,4.52,0,0,0,.85,1,2.07,2.07,0,0,0,3.48-1,31,31,0,0,1,1-3.81c2.41,2.07,4.75,4,7,6.07q6,5.31,12,10.68c.94.84,1,1.06-.2,1.62a49.91,49.91,0,0,1-13.93,4.75c-3,.47-5.86-.73-8.44-2.15-10.9-6-20.31-13.76-27.21-24.27C44,80.11,39.14,70.79,36.88,60.3c-1.31-6.06-2.17-12.15-1.54-18.38a10.81,10.81,0,0,1,2.1-5.69A55.64,55.64,0,0,1,48.35,25.79,3.19,3.19,0,0,1,48.89,25.54Z"
  /><path
    class="cls-2"
    d="M51.42,24.49l5.5.81a1.19,1.19,0,0,1,1.14,1.05c1.7,6.8,3.46,13.59,5.21,20.38a1,1,0,0,1-.36,1.2c-1.37,1-2.72,2.06-4.08,3.1-.65.5-1,.37-1.19-.44Q54.39,38,51.08,25.38C50.93,24.8,50.88,24.33,51.42,24.49Z"
  /><path
    class="cls-2"
    d="M87.51,87.09a1.32,1.32,0,0,1,.94.45L104,101.08a1.31,1.31,0,0,1,.45,1.72c-.67,1.52-1.3,3.07-1.87,4.63-.25.65-.46.51-.87.17q-9.85-8.28-19.54-16.77c-.41-.36-.82-.69-.07-1.12a35.53,35.53,0,0,1,5.1-2.52Z"
  /></svg>
