<svg
  id="Layer_1"
  data-name="Layer 1"
  xmlns="http://www.w3.org/2000/svg"
  viewBox="0 0 95.13 95.13"
  width="50px"
>
<defs><style>.cls-1{fill:#ffffff;}.cls-2{fill:#ff0046;}</style></defs>
<title>Untitled-2</title>
<path
    class="cls-1"
    d="M47.56,0A47.57,47.57,0,1,1,0,47.48,47.55,47.55,0,0,1,47.56,0ZM12.66,31.92a1.18,1.18,0,0,0,.43.63c1.56,1.71,3.11,3.42,4.69,5.09.41.43.36.62,0,1a16.86,16.86,0,0,0-4.91,15.47A16.62,16.62,0,0,0,24.17,67.55c6.31,2.24,12.16,1,17.33-3.22.39-.32.56-.28.87.06,1.58,1.75,3.19,3.47,4.76,5.22.33.36.51.38.85,0,1.53-1.69,3.1-3.35,4.61-5.06.45-.5.68-.5,1.2-.08a16.74,16.74,0,0,0,15,3.72A16.67,16.67,0,0,0,81.82,56c1.93-6.57.29-12.42-4.47-17.35-.42-.43-.38-.64,0-1,1.44-1.52,2.85-3.08,4.27-4.62l1-1.08H70.51a2,2,0,0,1-1.17-.35A38.67,38.67,0,0,0,49.19,25.1a38.9,38.9,0,0,0-23.36,6.46,2.09,2.09,0,0,1-1.23.37Z"
  />
  <path
    class="cls-2"
    d="M12.66,31.92H24.6a2.09,2.09,0,0,0,1.23-.37A38.9,38.9,0,0,1,49.19,25.1a38.67,38.67,0,0,1,20.15,6.48,2,2,0,0,0,1.17.35H82.59l-1,1.08c-1.42,1.54-2.83,3.1-4.27,4.62-.38.4-.42.61,0,1,4.76,4.93,6.4,10.78,4.47,17.35A16.67,16.67,0,0,1,68.75,68.19a16.74,16.74,0,0,1-15-3.72c-.52-.42-.75-.42-1.2.08-1.51,1.71-3.08,3.37-4.61,5.06-.34.38-.52.36-.85,0-1.57-1.75-3.18-3.47-4.76-5.22-.31-.34-.48-.38-.87-.06-5.17,4.27-11,5.46-17.33,3.22A16.62,16.62,0,0,1,12.84,54.14a16.86,16.86,0,0,1,4.91-15.47c.39-.41.44-.6,0-1-1.58-1.67-3.13-3.38-4.69-5.09A1.18,1.18,0,0,1,12.66,31.92ZM76.88,51.09A11.84,11.84,0,1,0,65.11,63,11.79,11.79,0,0,0,76.88,51.09ZM30.06,39.28A11.84,11.84,0,1,0,41.88,51.15,11.81,11.81,0,0,0,30.06,39.28Zm17.5,9.95c1.26-7.94,6-12.76,13-15.81-8.33-3.67-18.76-3.3-26,0C41.51,36.49,46.29,41.3,47.56,49.23Z"
  />
  <path
    class="cls-1"
    d="M76.88,51.09A11.84,11.84,0,1,1,65.07,39.28,11.83,11.83,0,0,1,76.88,51.09Zm-5.63,0a6.21,6.21,0,1,0-12.42.06,6.21,6.21,0,0,0,12.42-.06Z"
  />
  <path
    class="cls-1"
    d="M30.06,39.28A11.84,11.84,0,1,1,18.22,51.06,11.79,11.79,0,0,1,30.06,39.28Zm0,5.62a6.22,6.22,0,1,0,6.18,6.25A6.22,6.22,0,0,0,30.08,44.9Z"
  />
  <path
    class="cls-1"
    d="M47.56,49.23c-1.27-7.93-6.05-12.74-13-15.8,7.2-3.31,17.63-3.68,26,0C53.61,36.47,48.82,41.29,47.56,49.23Z"
  />
  <path
    class="cls-2"
    d="M71.25,51.09A6.21,6.21,0,1,1,65,44.9,6.21,6.21,0,0,1,71.25,51.09Z"
  />
  <path
    class="cls-2"
    d="M30.08,44.9a6.22,6.22,0,0,1,0,12.43,6.22,6.22,0,1,1,0-12.43Z"
  />
  </svg>
