<svg
  id="Layer_1"
  data-name="Layer 1"
  xmlns="http://www.w3.org/2000/svg"
  viewBox="0 0 80 80"
  width="50px"
>
<defs><style>.cls-1{fill:#d81f1c;}</style></defs>
<title>review</title>
<path
    class="cls-1"
    d="M74.06,34.05a7.72,7.72,0,0,1-.61,1.38,3.57,3.57,0,0,1-3,1.55c-2.19,0-4.38,0-6.57,0a1.35,1.35,0,0,0-1.07.43c-1.2,1.24-2.42,2.44-3.64,3.65-.81.81-1.38.81-2.19,0-1.25-1.24-2.49-2.48-3.73-3.74a1,1,0,0,0-.81-.35c-2.4,0-4.81,0-7.21,0-.44,0-.54.12-.57.54a18.1,18.1,0,0,1-1.21,4.33c-.4,1.26-.42,1.26.91,1.26H52.1a4.31,4.31,0,0,1,4.42,3.21,4,4,0,0,1-.23,2.85c-.15.32-.08.42.22.55a4.28,4.28,0,0,1,.19,7.84c-.3.15-.33.26-.19.56a4.24,4.24,0,0,1-2.21,5.76c-.24.12-.38.18-.23.5A4.31,4.31,0,0,1,50,70.5c-4.76,0-9.53,0-14.29,0a24.76,24.76,0,0,1-3.45-.16,17.56,17.56,0,0,1-4.09-1.17c-.31-.13-.51-.15-.75.15a3.16,3.16,0,0,1-2.57,1.18c-2.46,0-4.92,0-7.38,0a3.28,3.28,0,0,1-3.37-3.38q0-10.29,0-20.57a3.2,3.2,0,0,1,3.06-3.37c2.71-.15,5.42-.12,8.14,0a2.79,2.79,0,0,1,1.92.89.45.45,0,0,0,.65.09c.73-.42,1.48-.8,2.21-1.21a8.88,8.88,0,0,0,4.06-4.82c.83-2.27,1.64-4.55,2.47-6.82.43-1.19.85-1.4,2.09-1,.54.16,1.09.31,1.62.51A6.4,6.4,0,0,1,44,34.18a.69.69,0,0,0,.74.47c2.73,0,5.47,0,8.2,0a2,2,0,0,1,1.56.65c1.06,1.09,2.15,2.15,3.22,3.24.25.25.39.26.65,0,1.06-1.09,2.16-2.15,3.22-3.24a2,2,0,0,1,1.55-.65c2.35,0,4.69,0,7,0,1.16,0,1.57-.41,1.57-1.55V14.4c0-1.15-.4-1.56-1.55-1.56H24.3c-1.15,0-1.56.4-1.56,1.55V33.08c0,1.15.4,1.55,1.55,1.56.54,0,1.09,0,1.64,0a1.17,1.17,0,1,1,0,2.33c-.63,0-1.25,0-1.88,0a3.52,3.52,0,0,1-3.66-3.66c0-1.29,0-2.58,0-3.87V14.93c0-2.65.52-3.45,2.92-4.43H71.13c.31.12.62.22.92.35a3.79,3.79,0,0,1,2,2.58ZM28.25,56.59v9.6c0,.25-.05.48.28.61a15.26,15.26,0,0,0,6.07,1.35c2.5,0,5,0,7.49,0h7.85a2.43,2.43,0,0,0,1.19-.25,2,2,0,0,0,1-2.08,1.87,1.87,0,0,0-1.75-1.55c-1.35,0-2.69,0-4,0-.93,0-1.45-.43-1.46-1.16s.51-1.16,1.44-1.18h6a2.32,2.32,0,0,0,1.49-.42A2,2,0,0,0,52.55,58H46.46a3.22,3.22,0,0,1-.7,0,1.13,1.13,0,0,1-.89-1.1,1.09,1.09,0,0,1,.85-1.12,3.13,3.13,0,0,1,.75-.08h8.26A2,2,0,0,0,56.35,55a1.84,1.84,0,0,0,.32-2.08,1.88,1.88,0,0,0-1.81-1.16H46.54a3.65,3.65,0,0,1-.81-.08,1.09,1.09,0,0,1-.85-1.17,1.11,1.11,0,0,1,1-1.07,4.56,4.56,0,0,1,.64,0H52a4.2,4.2,0,0,0,.87-.07,1.92,1.92,0,0,0,1.48-2.2,2,2,0,0,0-2.21-1.66H41.72c-1.32,0-1.78-.64-1.37-1.88.56-1.64,1.13-3.28,1.66-4.93a4.38,4.38,0,0,0-2.94-5.8c-.37-.13-.53-.09-.67.31C37.73,35.05,37,37,36.33,38.86A11.19,11.19,0,0,1,32.1,44.4a35.61,35.61,0,0,1-3.41,1.93.72.72,0,0,0-.45.76C28.25,50.26,28.25,53.42,28.25,56.59Zm-2.35.2c0-3.38,0-6.76,0-10.13a1.06,1.06,0,0,0-1.17-1.22c-.56,0-1.13,0-1.7,0s-.72.14-.71.71c0,4.39,0,8.78,0,13.18a4.36,4.36,0,0,1-.06.81,1.14,1.14,0,0,1-2.22,0,3.64,3.64,0,0,1-.06-.81q0-4.43,0-8.85c0-1.49,0-3,0-4.45,0-.47-.14-.62-.6-.59s-1.09,0-1.63,0c-1,0-1.35.36-1.35,1.34v20c0,1,.35,1.33,1.36,1.33H24.5c1.08,0,1.4-.33,1.4-1.4Z"
  /><path
    class="cls-1"
    d="M62.59,17.39a1.71,1.71,0,0,1,1.49.87c.29.51.56,1,.8,1.56a.75.75,0,0,0,.73.54,12.92,12.92,0,0,1,1.5.22,1.86,1.86,0,0,1,1.56,1.25,1.84,1.84,0,0,1-.45,2,3.93,3.93,0,0,1-.55.53A1.8,1.8,0,0,0,67,26.62a3.64,3.64,0,0,1,.13,1,1.81,1.81,0,0,1-2.46,1.75,12.07,12.07,0,0,1-1.57-.78.88.88,0,0,0-1.06,0c-.43.27-.89.48-1.35.71a1.79,1.79,0,0,1-2-.18A1.68,1.68,0,0,1,58,27.23a2.66,2.66,0,0,0-1-3.36,1.67,1.67,0,0,1-.58-2A1.74,1.74,0,0,1,58,20.58a2.51,2.51,0,0,0,2.69-1.93A1.79,1.79,0,0,1,62.59,17.39Zm-2.14,9.34a3.11,3.11,0,0,1,4.14,0,3.15,3.15,0,0,1,1.26-4,3.1,3.1,0,0,1-3.35-2.44,3.14,3.14,0,0,1-3.36,2.47A3.13,3.13,0,0,1,60.45,26.73Z"
  /><path
    class="cls-1"
    d="M28.13,27.34c.07-.45.16-1.09.29-1.71A.62.62,0,0,0,28.2,25c-.4-.36-.79-.75-1.17-1.14a1.81,1.81,0,0,1-.5-2,1.86,1.86,0,0,1,1.61-1.27,9.24,9.24,0,0,1,1.27-.18c.58,0,.82-.3,1-.77a9,9,0,0,1,.69-1.35,1.82,1.82,0,0,1,3.15,0,14.41,14.41,0,0,1,.85,1.66.64.64,0,0,0,.57.41c.53,0,1.05.14,1.57.22a1.89,1.89,0,0,1,1.1,3.26c-.39.38-.77.77-1.18,1.14a.61.61,0,0,0-.21.67c.12.49.19,1,.27,1.49a1.9,1.9,0,0,1-.71,2,1.69,1.69,0,0,1-2.08.09,2.77,2.77,0,0,0-3.52,0C29.6,30,28.1,29.06,28.13,27.34Zm4.63-7c-.51.71-.65,1.46-1.26,1.91s-1.4.32-2.21.65a3,3,0,0,1,1.36,3.86,3.12,3.12,0,0,1,4.12,0A3.16,3.16,0,0,1,36,22.77,3,3,0,0,1,32.76,20.31Z"
  /><path
    class="cls-1"
    d="M47.59,17.39a1.84,1.84,0,0,1,1.7,1.05c.25.46.49.93.7,1.41a.72.72,0,0,0,.69.51c.5,0,1,.14,1.5.21a1.86,1.86,0,0,1,1.57,1.23,1.64,1.64,0,0,1-.47,2,2.77,2.77,0,0,0-1.15,3.43,1.67,1.67,0,0,1-.76,1.94,1.73,1.73,0,0,1-2.09,0,2.52,2.52,0,0,0-3.35,0,1.72,1.72,0,0,1-2.18-.07,1.76,1.76,0,0,1-.66-2,2.44,2.44,0,0,0-1-3.06,1.78,1.78,0,0,1-.71-2.12,1.89,1.89,0,0,1,1.81-1.33.93.93,0,0,1,.23,0,2.08,2.08,0,0,0,2.26-1.69A1.9,1.9,0,0,1,47.59,17.39ZM51,22.84c-.84-.28-1.62-.17-2.24-.64S48,21,47.5,20.3a3,3,0,0,1-3.26,2.5,3.15,3.15,0,0,1,1.32,3.92,3.12,3.12,0,0,1,4.13,0A3,3,0,0,1,51,22.84Z"
  /><path
    class="cls-1"
    d="M31,34.65A1.16,1.16,0,0,1,31,37,1.16,1.16,0,0,1,31,34.65Z"
  /><path
    class="cls-1"
    d="M20,64.12a1.15,1.15,0,1,1,1.16,1.14A1.15,1.15,0,0,1,20,64.12Z"
  /></svg>
